<svg width="34" height="34" xmlns="http://www.w3.org/2000/svg">
    <g fill-rule="nonzero" fill="none">
        <path d="M7.762 17.5A9.4 9.4 0 0 1 9 12.817V7H3.417C1.201 9.999 0 13.653 0 17.5c0 3.847 1.201 7.501 3.417 10.5H9v-5.817A9.4 9.4 0 0 1 7.762 17.5z" fill="#FBBD00"/>
        <path d="M16.893 26.232 13 30.116 16.893 34c3.703 0 7.22-1.202 10.107-3.42V25h-5.594a8.838 8.838 0 0 1-4.513 1.232z" fill="#0F9D58"/>
        <path d="M9.522 22 4 27.553c.434.566.906 1.109 1.418 1.623A16.228 16.228 0 0 0 17 34v-7.72c-3.175 0-5.958-1.72-7.478-4.28z" fill="#31AA52"/>
        <path d="M34 16.81c0-1.012-.094-2.025-.278-3.012l-.15-.798H17v7.79h8.065a8.872 8.872 0 0 1-3.445 3.613L27.345 30c.585-.44 1.145-.92 1.676-1.439C32.23 25.422 34 21.25 34 16.81z" fill="#3C79E6"/>
        <path d="m23.55 10.315.717.685L30 5.524l-.717-.685C26.017 1.72 21.673 0 17.053 0L13 3.872l4.054 3.873c2.454 0 4.761.913 6.497 2.57z" fill="#CF2D48"/>
        <path d="M17 7.72V0A16.228 16.228 0 0 0 5.418 4.824 16.69 16.69 0 0 0 4 6.447L9.522 12c1.52-2.56 4.303-4.28 7.478-4.28z" fill="#EB4132"/>
    </g>
</svg>
