<svg width="159" height="33" xmlns="http://www.w3.org/2000/svg" xmlns:xlink="http://www.w3.org/1999/xlink">
    <defs>
        <path id="a" d="M0 0h45.6v32.874H0z"/>
        <path id="c" d="M0 32.874h158.882V0H0z"/>
    </defs>
    <g fill="none" fill-rule="evenodd">
        <g>
            <mask id="b" fill="#fff">
                <use xlink:href="#a"/>
            </mask>
            <path d="M45.586 16.96c.002-.105.014-.208.014-.314l-.006.007c.01-.551-.01-1.11-.073-1.675-.644-5.772-5.313-10.406-11.09-11.012a12.488 12.488 0 0 0-10.675 4.118 13.951 13.951 0 0 1 2.224 4.523 8.068 8.068 0 0 1 8.13-4.2c3.649.452 6.576 3.415 6.988 7.067.549 4.862-3.257 8.996-8.01 8.996a8.067 8.067 0 0 1-7.108-4.262c-.61-1.133-.724-1.426-.932-3.206-.307-2.622-.847-5.684-2.248-7.705a12.732 12.732 0 0 0-.955-1.213 12.49 12.49 0 0 0-10.677-4.118c-.206.02-.408.059-.611.09.899-1.148 2.105-2.266 3.73-3.208.432-.25.188-.915-.307-.842C6.286 1.144.349 7.63.03 15.563a10.53 10.53 0 0 0-.017.395c-.002.09-.013.179-.013.27l.005-.004c-.1 6.983 5.548 12.696 12.508 12.696 3.705 0 7.038-1.621 9.332-4.19a13.951 13.951 0 0 1-2.224-4.522 8.067 8.067 0 0 1-8.131 4.199c-3.648-.452-6.575-3.414-6.987-7.067-.55-4.861 3.256-8.995 8.01-8.995a8.067 8.067 0 0 1 7.108 4.262c.609 1.133.867 2.909.964 4.279.194 2.75.814 4.61 2.215 6.632.294.424.613.829.956 1.213a12.485 12.485 0 0 0 11.332 4.028c-.903 1.17-2.122 2.31-3.774 3.267-.433.25-.188.916.307.843 7.753-1.147 13.723-7.724 13.957-15.74l.008-.17" fill="#9B51E0" mask="url(#b)"/>
        </g>
        <path d="M29.966 19.277c-.568 0-1.028-.46-1.028-1.028v-3.275a1.028 1.028 0 1 1 2.056 0v3.275c0 .568-.46 1.028-1.028 1.028M35.907 19.277c-.568 0-1.028-.46-1.028-1.028v-3.275a1.028 1.028 0 1 1 2.056 0v3.275c0 .568-.46 1.028-1.028 1.028M16.564 16.087a.802.802 0 0 0-.8.801 3.32 3.32 0 0 1-3.317 3.316 3.32 3.32 0 0 1-3.316-3.316.802.802 0 0 0-1.602 0 4.923 4.923 0 0 0 4.918 4.917 4.923 4.923 0 0 0 4.918-4.917.801.801 0 0 0-.8-.8" fill="#9B51E0"/>
        <path fill="#000" d="M67.197 5.485v3.01h-7.766v4.357h6.86v3.054h-6.86v4.403h8.01v3.053H55.846V5.485zM75.56 11.968c-1.032 0-1.796.31-2.29.93-.495.618-.756 1.481-.785 2.588v1.681c0 1.151.246 2.043.741 2.677.494.634 1.272.951 2.334.951 1.018 0 1.755-.283 2.213-.85.456-.569.685-1.428.685-2.579v-1.99c0-1.166-.229-2.026-.685-2.578-.458-.554-1.195-.83-2.213-.83zm-6.417 16.04V9.512h3.076l.155.863a5.54 5.54 0 0 1 1.505-.963 4.618 4.618 0 0 1 1.858-.365c.988 0 1.866.144 2.633.432.766.287 1.412.693 1.936 1.216a5.053 5.053 0 0 1 1.183 1.903c.266.746.4 1.582.4 2.511v2.501c0 1.873-.52 3.355-1.56 4.447-1.04 1.091-2.586 1.637-4.636 1.637-.679 0-1.28-.088-1.804-.266a5.302 5.302 0 0 1-1.404-.708v5.288h-3.342z"/>
        <mask id="d" fill="#fff">
            <use xlink:href="#c"/>
        </mask>
        <path d="M83.703 23.362h3.429V9.733h-3.429v13.629zm-.001-15.354h3.429V4.866h-3.429v3.142zM92.243 18.738c.014.413.096.752.243 1.018.147.265.343.475.587.631.243.154.527.261.85.32.325.06.673.09 1.04.09.34 0 .676-.02 1.008-.056a3.44 3.44 0 0 0 .885-.21c.258-.104.465-.25.619-.443.155-.192.225-.443.21-.753-.014-.354-.206-.649-.575-.885-.37-.235-.833-.445-1.394-.63a20.446 20.446 0 0 0-1.87-.509 21.997 21.997 0 0 1-1.98-.542c-.9-.295-1.545-.748-1.935-1.36-.391-.613-.594-1.332-.61-2.158-.013-.663.127-1.26.422-1.792a4.058 4.058 0 0 1 1.195-1.338 5.62 5.62 0 0 1 1.736-.83 7.414 7.414 0 0 1 2.09-.288c.842 0 1.62.096 2.335.288a5.636 5.636 0 0 1 1.87.863c.53.383.959.87 1.283 1.46.324.59.509 1.291.553 2.102h-3.341c-.118-.56-.391-1.003-.818-1.328-.428-.324-1.033-.479-1.815-.464-.634.015-1.147.125-1.537.332-.391.206-.587.567-.587 1.084 0 .265.096.501.288.708.192.206.538.39 1.04.553.56.177 1.173.324 1.836.442a8.91 8.91 0 0 1 1.97.598c.398.176.796.387 1.194.63.398.244.752.524 1.062.841.31.317.557.671.74 1.062.185.391.278.815.278 1.272 0 .87-.162 1.578-.487 2.124a3.567 3.567 0 0 1-1.316 1.294c-.553.317-1.203.535-1.947.653a15.37 15.37 0 0 1-2.401.177c-.797 0-1.556-.08-2.28-.244a5.64 5.64 0 0 1-1.924-.807 4.132 4.132 0 0 1-1.35-1.516c-.338-.634-.523-1.43-.552-2.389h3.385zM105.54 17.544c0 1.165.312 1.999.94 2.5.626.5 1.448.752 2.466.752 1.033 0 1.844-.251 2.434-.752.59-.501.885-1.335.885-2.5v-2.39c0-1.15-.295-1.972-.885-2.467-.59-.494-1.4-.741-2.434-.741-1.018 0-1.84.247-2.467.74-.627.496-.94 1.318-.94 2.468v2.39zm-3.364-2.59c0-.928.162-1.761.487-2.5a5.183 5.183 0 0 1 1.371-1.868c.59-.51 1.302-.9 2.135-1.173.833-.273 1.76-.41 2.777-.41 1.018 0 1.94.137 2.766.41.826.273 1.534.663 2.124 1.173a5.195 5.195 0 0 1 1.371 1.869c.325.738.487 1.57.487 2.5v2.832c0 .929-.162 1.763-.487 2.5a5.099 5.099 0 0 1-1.37 1.859c-.59.5-1.299.885-2.125 1.15-.826.266-1.748.398-2.766.398s-1.944-.132-2.777-.398c-.833-.265-1.545-.65-2.135-1.15a5.088 5.088 0 0 1-1.37-1.86c-.326-.736-.488-1.57-.488-2.5v-2.831zM123.195 20.773c.5 0 .937-.063 1.305-.188.369-.125.682-.338.94-.642.259-.302.45-.696.576-1.183.125-.487.195-1.091.21-1.814V15.73c0-1.164-.247-2.09-.741-2.776-.495-.686-1.258-1.03-2.29-1.03-1.018 0-1.763.277-2.235.83-.472.553-.708 1.413-.708 2.579v2.034c0 1.15.236 2.006.708 2.567.472.56 1.217.84 2.235.84zm6.372-15.907v18.497h-3.031l-.155-.753a5.21 5.21 0 0 1-1.405.797 4.72 4.72 0 0 1-1.671.288c-1.12 0-2.087-.145-2.898-.433-.811-.288-1.48-.697-2.002-1.227a4.9 4.9 0 0 1-1.162-1.925c-.25-.752-.376-1.593-.376-2.523v-2.521c0-.93.133-1.767.399-2.511a5.111 5.111 0 0 1 1.172-1.903c.516-.523 1.154-.93 1.914-1.217.759-.287 1.633-.431 2.622-.431.663 0 1.264.08 1.803.242a5.151 5.151 0 0 1 1.449.686V4.865h3.34zM137.842 11.946c-.93 0-1.656.199-2.18.597-.523.399-.844 1.084-.962 2.058h6.195c-.103-.974-.41-1.659-.918-2.058-.51-.398-1.221-.597-2.135-.597zm6.328 7.39c-.266 1.489-.963 2.588-2.091 3.296-1.13.708-2.533 1.062-4.215 1.062-1.018 0-1.93-.14-2.732-.42-.805-.281-1.49-.686-2.058-1.217a5.302 5.302 0 0 1-1.305-1.925c-.303-.752-.454-1.593-.454-2.522v-2.523c0-.929.15-1.766.454-2.511a5.379 5.379 0 0 1 1.294-1.913c.56-.531 1.242-.941 2.046-1.229.804-.287 1.715-.431 2.733-.431 1.002 0 1.91.144 2.72.431.812.288 1.502.698 2.07 1.229a5.316 5.316 0 0 1 1.305 1.913c.302.745.454 1.582.454 2.511v.487c.014.148.022.292.022.432v1.36h-9.735c0 1.269.273 2.158.818 2.667.546.508 1.335.763 2.368.763.678 0 1.268-.104 1.77-.31.5-.206.81-.59.929-1.15h3.607zM149.235 9.512l.243 1.15c.325-.427.793-.803 1.405-1.128a4.26 4.26 0 0 1 2.025-.486c.987 0 1.858.143 2.61.43.753.288 1.376.694 1.87 1.218a5.099 5.099 0 0 1 1.117 1.903c.251.745.376 1.58.376 2.51v8.253h-3.429v-7.987c0-1.165-.203-2.024-.609-2.577-.405-.553-1.124-.83-2.157-.83-1.003 0-1.78.35-2.334 1.05-.553.702-.845 1.605-.874 2.71v7.634h-3.34V9.512h3.097z" fill="#000" mask="url(#d)"/>
    </g>
</svg>
