<?xml version="1.0" encoding="utf-8"?>
<!-- Generator: Adobe Illustrator 26.0.3, SVG Export Plug-In . SVG Version: 6.00 Build 0)  -->
<svg version="1.1" id="레이어_1" xmlns="http://www.w3.org/2000/svg" xmlns:xlink="http://www.w3.org/1999/xlink" x="0px"
	 y="0px" viewBox="0 0 703 141" style="enable-background:new 0 0 703 141;" xml:space="preserve">
<style type="text/css">
	
		.st0{clip-path:url(#SVGID_00000079471168135953270680000001708931647583035054_);fill:url(#XMLID_00000049937523183716043920000002340263517375627942_);}
	.st1{fill:#000101;}
	.st2{fill:#F16421;}
	.st3{fill:#E41A24;}
	.st4{fill:#F89E1A;}
	.st5{fill:url(#SVGID_00000026852203840973439740000013928570953156509842_);}
	.st6{fill:url(#SVGID_00000158027179260460474930000002186247598177341851_);}
	.st7{fill:url(#SVGID_00000150786993342296522690000003374847473824709040_);}
	.st8{fill:url(#SVGID_00000060725787609560839090000003402396855157302448_);}
	.st9{fill:url(#SVGID_00000092435284052495454430000005612293527965796494_);}
</style>
<g>
	<defs>
		<path id="SVGID_1_" d="M76.4,30.2L54.7,85.1l-8.8-46.7c-1-5.2-5.1-8.2-9.6-8.2H0.8l-0.5,2.3c7.3,1.6,15.6,4.1,20.6,6.9
			c3.1,1.7,3.9,3.1,5,7.1l16.6,64.4h22.1l33.8-80.7H76.4z M107.3,30.2l-17.3,80.7h20.9l17.3-80.7H107.3z M227,52l6.3,30.3H216
			L227,52z M223.9,30.2c-4,0-7.4,2.3-8.9,5.9l-31.3,74.8h21.9l4.4-12.1h26.8l2.5,12.1h19.3l-16.8-80.7H223.9z M133.9,55.4
			c-0.1,11.6,10.4,18.1,18.3,22c8.1,4,10.9,6.5,10.8,10c-0.1,5.4-6.5,7.8-12.5,7.9c-10.5,0.2-16.6-2.8-21.4-5.1l-3.8,17.7
			c4.9,2.2,13.9,4.2,23.2,4.3c21.9,0,36.3-10.8,36.3-27.6c0.1-21.3-29.4-22.5-29.2-32c0.1-2.9,2.8-6,8.9-6.8
			c3-0.4,11.2-0.7,20.6,3.6l3.7-17.1c-5-1.8-11.5-3.6-19.5-3.6C148.5,28.7,134,39.7,133.9,55.4"/>
	</defs>
	<clipPath id="SVGID_00000120528270042510355190000016554076028631671939_">
		<use xlink:href="#SVGID_1_"  style="overflow:visible;"/>
	</clipPath>
	
		<linearGradient id="XMLID_00000015357201129864979120000010879973137593767087_" gradientUnits="userSpaceOnUse" x1="646.295" y1="939.9413" x2="648.336" y2="939.9413" gradientTransform="matrix(126.5456 0 0 -126.5456 -81785.4609 119015.8203)">
		<stop  offset="0" style="stop-color:#241F5D"/>
		<stop  offset="1" style="stop-color:#034EA1"/>
	</linearGradient>
	
		<rect id="XMLID_6_" x="0.3" y="28.7" style="clip-path:url(#SVGID_00000120528270042510355190000016554076028631671939_);fill:url(#XMLID_00000015357201129864979120000010879973137593767087_);" width="258.3" height="83.4"/>
</g>
<g id="XMLID_24_">
	<path id="XMLID_33_" class="st1" d="M333.9,140.3V131c0-3.5-2.2-5.9-5.9-5.9c-1.9,0-3.9,0.6-5.2,2.7c-1-1.7-2.7-2.7-4.9-2.7
		c-1.6,0-3.2,0.5-4.4,2.2v-1.8h-3.2v14.9h3.3v-8.3c0-2.6,1.4-4,3.7-4c2.2,0,3.2,1.4,3.2,3.9v8.3h3.3v-8.3c0-2.6,1.5-4,3.7-4
		c2.2,0,3.3,1.4,3.3,3.9v8.3H333.9z M382.4,125.4h-5.3v-4.5h-3.3v4.5h-3v3h3v6.8c0,3.5,1.3,5.5,5.2,5.5c1.4,0,3-0.4,4.1-1.2
		l-0.9-2.8c-1,0.6-2,0.8-2.9,0.8c-1.6,0-2.2-1-2.2-2.5v-6.7h5.3V125.4z M410.1,125c-1.9,0-3.1,0.9-3.9,2.2v-1.8H403v14.9h3.2V132
		c0-2.5,1.1-3.8,3.2-3.8c0.7,0,1.3,0.1,2,0.4l1-3.1C411.7,125.2,410.8,125,410.1,125 M368.3,126.6c-1.6-1-3.7-1.6-6.1-1.6
		c-3.8,0-6.2,1.8-6.2,4.8c0,2.4,1.8,3.9,5.1,4.4l1.5,0.2c1.8,0.3,2.6,0.7,2.6,1.6c0,1.2-1.2,1.8-3.4,1.8c-2.2,0-3.9-0.7-5-1.6
		l-1.5,2.5c1.8,1.3,4,1.9,6.5,1.9c4.3,0,6.8-2,6.8-4.9c0-2.6-2-4-5.2-4.5l-1.5-0.2c-1.4-0.2-2.5-0.5-2.5-1.5c0-1.1,1.1-1.8,2.8-1.8
		c1.9,0,3.7,0.7,4.7,1.3L368.3,126.6z M455.2,125c-1.9,0-3.1,0.9-3.9,2.2v-1.8h-3.2v14.9h3.2V132c0-2.5,1.1-3.8,3.2-3.8
		c0.7,0,1.3,0.1,2,0.4l1-3.1C456.8,125.2,455.9,125,455.2,125 M413.4,132.9c0,4.5,3.2,7.8,8,7.8c2.2,0,3.7-0.5,5.4-1.8l-1.6-2.6
		c-1.2,0.9-2.5,1.3-3.9,1.3c-2.6,0-4.5-1.9-4.5-4.8c0-2.9,1.9-4.7,4.5-4.8c1.4,0,2.7,0.5,3.9,1.3l1.6-2.6c-1.6-1.3-3.1-1.8-5.4-1.8
		C416.6,125,413.4,128.4,413.4,132.9 M443.8,132.9v-7.5h-3.2v1.8c-1-1.3-2.6-2.2-4.7-2.2c-4.2,0-7.5,3.3-7.5,7.8
		c0,4.6,3.3,7.8,7.5,7.8c2.1,0,3.7-0.8,4.7-2.2v1.8h3.2V132.9z M431.7,132.9c0-2.6,1.7-4.8,4.5-4.8c2.7,0,4.5,2.1,4.5,4.8
		c0,2.7-1.8,4.8-4.5,4.8C433.4,137.7,431.7,135.5,431.7,132.9 M392.6,125c-4.4,0-7.4,3.2-7.4,7.8c0,4.7,3.2,7.8,7.6,7.8
		c2.2,0,4.3-0.6,6.1-2.1l-1.6-2.4c-1.2,1-2.8,1.6-4.3,1.6c-2.1,0-4-1-4.5-3.7h11.1c0-0.4,0.1-0.8,0.1-1.2
		C399.6,128.2,396.7,125,392.6,125 M392.5,127.9c2.1,0,3.4,1.3,3.8,3.6h-7.7C388.9,129.4,390.2,127.9,392.5,127.9 M473.9,132.9
		v-13.5h-3.2v7.8c-1-1.3-2.6-2.2-4.7-2.2c-4.2,0-7.5,3.3-7.5,7.8c0,4.6,3.3,7.8,7.5,7.8c2.1,0,3.7-0.8,4.7-2.2v1.8h3.2V132.9z
		 M461.8,132.9c0-2.6,1.7-4.8,4.5-4.8c2.7,0,4.5,2.1,4.5,4.8c0,2.7-1.8,4.8-4.5,4.8C463.6,137.7,461.8,135.5,461.8,132.9
		 M352.2,132.9v-7.5H349v1.8c-1-1.3-2.6-2.2-4.7-2.2c-4.2,0-7.5,3.3-7.5,7.8c0,4.6,3.3,7.8,7.5,7.8c2.1,0,3.7-0.8,4.7-2.2v1.8h3.2
		V132.9z M340.2,132.9c0-2.6,1.7-4.8,4.5-4.8c2.7,0,4.5,2.1,4.5,4.8c0,2.7-1.8,4.8-4.5,4.8C341.9,137.7,340.2,135.5,340.2,132.9
		 M479.3,138.2c0.2,0,0.4,0,0.6,0.1c0.2,0.1,0.3,0.2,0.5,0.3c0.1,0.1,0.2,0.3,0.3,0.5c0.1,0.2,0.1,0.4,0.1,0.6s0,0.4-0.1,0.6
		c-0.1,0.2-0.2,0.3-0.3,0.5c-0.1,0.1-0.3,0.2-0.5,0.3c-0.2,0.1-0.4,0.1-0.6,0.1c-0.2,0-0.4,0-0.6-0.1c-0.2-0.1-0.3-0.2-0.5-0.3
		c-0.1-0.1-0.2-0.3-0.3-0.5c-0.1-0.2-0.1-0.4-0.1-0.6s0-0.4,0.1-0.6c0.1-0.2,0.2-0.3,0.3-0.5c0.1-0.1,0.3-0.2,0.5-0.3
		C478.9,138.2,479.1,138.2,479.3,138.2 M479.3,140.8c0.2,0,0.3,0,0.4-0.1c0.1-0.1,0.3-0.1,0.4-0.2c0.1-0.1,0.2-0.2,0.2-0.4
		c0.1-0.1,0.1-0.3,0.1-0.5c0-0.2,0-0.3-0.1-0.5c-0.1-0.1-0.1-0.3-0.2-0.4c-0.1-0.1-0.2-0.2-0.4-0.2c-0.1-0.1-0.3-0.1-0.4-0.1
		c-0.2,0-0.3,0-0.5,0.1c-0.1,0.1-0.3,0.1-0.4,0.2c-0.1,0.1-0.2,0.2-0.2,0.4c-0.1,0.1-0.1,0.3-0.1,0.5c0,0.2,0,0.3,0.1,0.5
		c0.1,0.1,0.1,0.3,0.2,0.4c0.1,0.1,0.2,0.2,0.4,0.2C479,140.8,479.2,140.8,479.3,140.8 M479.4,139c0.2,0,0.3,0,0.4,0.1
		c0.1,0.1,0.1,0.2,0.1,0.3c0,0.1,0,0.2-0.1,0.3c-0.1,0.1-0.2,0.1-0.3,0.1l0.5,0.5h-0.4l-0.4-0.5h-0.1v0.5h-0.3V139H479.4z
		 M479.1,139.2v0.4h0.3c0.1,0,0.1,0,0.2,0c0,0,0.1-0.1,0.1-0.1s0-0.1-0.1-0.1c0,0-0.1,0-0.2,0H479.1z"/>
	
		<rect id="XMLID_00000023265676128483671290000013726472216666298760_" x="367.2" y="11.7" class="st2" width="49.2" height="88.4"/>
	<path id="XMLID_00000168106724920952031670000015129405101879191192_" class="st3" d="M370.3,55.9c0-17.9,8.4-33.9,21.5-44.2
		c-9.6-7.5-21.6-12-34.7-12c-31,0-56.2,25.2-56.2,56.2c0,31,25.2,56.2,56.2,56.2c13.1,0,25.2-4.5,34.7-12
		C378.7,89.8,370.3,73.8,370.3,55.9"/>
	<path id="XMLID_27_" class="st4" d="M482.7,55.9c0,31-25.2,56.2-56.2,56.2c-13.1,0-25.2-4.5-34.7-12c13.1-10.3,21.5-26.3,21.5-44.2
		s-8.4-33.9-21.5-44.2c9.6-7.5,21.6-12,34.7-12C457.5-0.3,482.7,24.9,482.7,55.9 M477.3,90.7v-1.8h0.7v-0.4h-1.9v0.4h0.7v1.8H477.3z
		 M480.9,90.7v-2.2h-0.6l-0.7,1.5l-0.7-1.5h-0.6v2.2h0.4v-1.6l0.6,1.4h0.4l0.6-1.4v1.6H480.9z"/>
</g>
<g>
	
		<linearGradient id="SVGID_00000072261579853931104570000012708724973184935041_" gradientUnits="userSpaceOnUse" x1="1143.6189" y1="-362.8248" x2="1192.2751" y2="-362.8248" gradientTransform="matrix(1.13 0 0 1.13 -640.05 480.4131)">
		<stop  offset="0" style="stop-color:#007940"/>
		<stop  offset="0.23" style="stop-color:#00873F"/>
		<stop  offset="0.74" style="stop-color:#40A737"/>
		<stop  offset="1" style="stop-color:#5CB531"/>
	</linearGradient>
	<path style="fill:url(#SVGID_00000072261579853931104570000012708724973184935041_);" d="M659,76.3h12.8c0.4,0,1.2-0.1,1.5-0.1
		c2.7-0.6,4.6-3,4.6-5.7c0-2.7-1.9-5.1-4.6-5.7c-0.5-0.1-1-0.1-1.5-0.1H659V76.3z"/>
	
		<linearGradient id="SVGID_00000142864322755054694470000016145099576926804620_" gradientUnits="userSpaceOnUse" x1="1143.6189" y1="-362.8248" x2="1192.2295" y2="-362.8248" gradientTransform="matrix(1.13 0 0 1.13 -640.05 480.4131)">
		<stop  offset="0" style="stop-color:#007940"/>
		<stop  offset="0.23" style="stop-color:#00873F"/>
		<stop  offset="0.74" style="stop-color:#40A737"/>
		<stop  offset="1" style="stop-color:#5CB531"/>
	</linearGradient>
	<path style="fill:url(#SVGID_00000142864322755054694470000016145099576926804620_);" d="M670.3,4c-12.2,0-22.2,9.9-22.2,22.2l0,0
		v23h31.3c0.7,0,1.5,0,2.2,0.1c7.1,0.4,12.3,4,12.3,10.4c0,5-3.5,9.3-10.1,10.1V70c7.2,0.5,12.7,4.6,12.7,10.6
		c0,6.7-6.1,11.1-14.1,11.1H648v45.1h32.5c12.2,0,22.2-9.9,22.2-22.2c0,0,0,0,0,0V4H670.3z"/>
	
		<linearGradient id="SVGID_00000133491399638447352810000003796627681647979179_" gradientUnits="userSpaceOnUse" x1="1143.6189" y1="-362.8248" x2="1192.2751" y2="-362.8248" gradientTransform="matrix(1.13 0 0 1.13 -640.05 480.4131)">
		<stop  offset="0" style="stop-color:#007940"/>
		<stop  offset="0.23" style="stop-color:#00873F"/>
		<stop  offset="0.74" style="stop-color:#40A737"/>
		<stop  offset="1" style="stop-color:#5CB531"/>
	</linearGradient>
	<path style="fill:url(#SVGID_00000133491399638447352810000003796627681647979179_);" d="M676.3,70.4c0-2.7-1.9-4.9-4.6-5.2
		c-0.2,0-0.9-0.1-1.2-0.1h-11.6v10.6h11.6c0.4,0,0.8,0,1.2-0.1C674.3,75.3,676.3,73.1,676.3,70.4z"/>
	
		<linearGradient id="SVGID_00000060011050130827687740000012885034430406401949_" gradientUnits="userSpaceOnUse" x1="1034.7051" y1="-362.8248" x2="1084.1063" y2="-362.8248" gradientTransform="matrix(1.13 0 0 1.13 -640.05 480.4131)">
		<stop  offset="0" style="stop-color:#1F286F"/>
		<stop  offset="0.48" style="stop-color:#004E94"/>
		<stop  offset="0.83" style="stop-color:#0066B1"/>
		<stop  offset="1" style="stop-color:#006FBC"/>
	</linearGradient>
	<path style="fill:url(#SVGID_00000060011050130827687740000012885034430406401949_);" d="M547.8,4c-12.2,0-22.2,9.9-22.2,22.2v54.7
		c5.9,3.1,12.5,4.8,19.1,5c7.6,0,11.8-4.6,11.8-11V49.1h19v25.7c0,10-6.2,18.2-27.3,18.2c-7.7,0-15.3-0.9-22.8-2.8v46.6H558
		c12.2,0,22.2-9.9,22.2-22.2l0,0V4H547.8z"/>
	
		<linearGradient id="SVGID_00000016039545322378793960000013291897911817616017_" gradientUnits="userSpaceOnUse" x1="1088.9111" y1="-362.8248" x2="1136.8831" y2="-362.8248" gradientTransform="matrix(1.13 0 0 1.13 -640.05 480.4131)">
		<stop  offset="0" style="stop-color:#6C2C2F"/>
		<stop  offset="0.17" style="stop-color:#882730"/>
		<stop  offset="0.57" style="stop-color:#BE1833"/>
		<stop  offset="0.86" style="stop-color:#DC0436"/>
		<stop  offset="1" style="stop-color:#E60039"/>
	</linearGradient>
	<path style="fill:url(#SVGID_00000016039545322378793960000013291897911817616017_);" d="M609.1,3.9c-12.2,0-22.2,9.9-22.2,22.2v29
		c5.6-4.7,15.3-7.8,31.1-7.1c5.9,0.4,11.7,1.3,17.4,2.7v9.4c-5.2-2.8-10.9-4.4-16.8-4.9c-11.9-0.9-19.1,5-19.1,15.2
		c0,10.2,7.2,16.2,19.1,15.2c5.9-0.5,11.6-2.1,16.8-4.9v9.4c-5.7,1.4-11.5,2.3-17.4,2.7c-15.7,0.7-25.5-2.3-31.1-7.1v51.1h32.5
		c12.2,0,22.1-9.9,22.1-22.1V3.9H609.1z"/>
</g>
</svg>
