<?xml version="1.0" encoding="utf-8"?>
<!-- Generator: Adobe Illustrator 26.1.0, SVG Export Plug-In . SVG Version: 6.00 Build 0)  -->
<svg version="1.1" id="레이어_1" xmlns="http://www.w3.org/2000/svg" xmlns:xlink="http://www.w3.org/1999/xlink" x="0px"
	 y="0px" viewBox="0 0 52 52" style="enable-background:new 0 0 52 52;" xml:space="preserve">
<style type="text/css">
	.st0{fill:#FFFFFF;stroke:#9B51E0;stroke-width:2;}
	.st1{fill:none;stroke:#9B51E0;stroke-width:2;}
	.st2{fill:#9B51E0;}
</style>
<path class="st0" d="M10,1h32c5,0,9,4,9,9v32c0,5-4,9-9,9H10c-5,0-9-4-9-9V10C1,5,5,1,10,1z"/>
<path class="st1" d="M28.5,35.6c0,0.6-0.3,1.1-0.9,1.3C27.4,37,27.2,37,27,37c-0.3,0-0.7-0.1-1-0.3L17.9,30h-4.4
	c-0.8,0-1.5-0.7-1.5-1.5v-5.9c0-0.8,0.7-1.5,1.5-1.5h4.4l8.2-6.7c0.4-0.4,1.1-0.4,1.6-0.2c0.5,0.2,0.9,0.8,0.9,1.3L28.5,35.6
	L28.5,35.6z"/>
<path class="st2" d="M34.1,21.7l7.1,7.1c0.4,0.4,0.4,1,0,1.4l0,0c-0.4,0.4-1,0.4-1.4,0l-7.1-7.1c-0.4-0.4-0.4-1,0-1.4l0,0
	C33.1,21.3,33.7,21.3,34.1,21.7z"/>
<path class="st2" d="M32.7,28.8l7.1-7.1c0.4-0.4,1-0.4,1.4,0l0,0c0.4,0.4,0.4,1,0,1.4l-7.1,7.1c-0.4,0.4-1,0.4-1.4,0l0,0
	C32.3,29.8,32.3,29.2,32.7,28.8z"/>
</svg>
