<?xml version="1.0" encoding="utf-8"?>
<!-- Generator: Adobe Illustrator 26.2.1, SVG Export Plug-In . SVG Version: 6.00 Build 0)  -->
<svg version="1.1" id="레이어_1" xmlns="http://www.w3.org/2000/svg" xmlns:xlink="http://www.w3.org/1999/xlink" x="0px"
	 y="0px" viewBox="0 0 80 80" style="enable-background:new 0 0 80 80;" xml:space="preserve">
<style type="text/css">
	.st0{fill:#7854A0;}
</style>
<g>
	<g>
		<g>
			<path class="st0" d="M75.7,40.3c0-0.9,0-1.7-0.1-2.6c-1-9-8.3-16.3-17.3-17.2c-6.6-0.7-12.7,1.9-16.7,6.4
				c1.6,2.1,2.7,4.5,3.5,7.1c2.4-4.4,7.3-7.2,12.7-6.6c5.7,0.7,10.3,5.3,10.9,11.1c0.9,7.6-5.1,14.1-12.5,14.1
				c-4.8,0-9-2.7-11.1-6.7c-1-1.8-1.1-2.2-1.5-5C43,36.8,42.2,32,40,28.8c-0.5-0.7-1-1.3-1.5-1.9c-4-4.5-10.1-7.1-16.7-6.4
				c-0.3,0-0.6,0.1-1,0.1c1.4-1.8,3.3-3.5,5.8-5c0.7-0.4,0.3-1.4-0.5-1.3C13.8,16.1,4.3,26.8,4.3,39.7l0,0
				C4.2,50.6,13,59.5,23.9,59.5c5.8,0,11-2.5,14.6-6.6c-1.6-2.1-2.7-4.5-3.5-7.1c-2.4,4.4-7.3,7.2-12.7,6.6
				c-5.7-0.7-10.3-5.3-10.9-11.1c-0.9-7.6,5.1-14.1,12.5-14.1c4.8,0,9,2.7,11.1,6.7c1,1.8,1.4,4.6,1.5,6.7c0.3,4.3,1.3,7.2,3.5,10.4
				c0.5,0.7,1,1.3,1.5,1.9c3.6,4,8.8,6.6,14.6,6.6c1.1,0,2.1-0.1,3.1-0.3c-1.4,1.8-3.3,3.6-5.9,5.1c-0.7,0.4-0.3,1.4,0.5,1.3
				C66.2,63.9,75.7,53.2,75.7,40.3L75.7,40.3z"/>
			<path class="st0" d="M51.2,44.4L51.2,44.4c-0.9,0-1.6-0.7-1.6-1.6v-5.1c0-0.9,0.7-1.6,1.6-1.6l0,0c0.9,0,1.6,0.7,1.6,1.6v5.1
				C52.8,43.7,52.1,44.4,51.2,44.4z"/>
			<path class="st0" d="M60.5,44.4L60.5,44.4c-0.9,0-1.6-0.7-1.6-1.6v-5.1c0-0.9,0.7-1.6,1.6-1.6l0,0c0.9,0,1.6,0.7,1.6,1.6v5.1
				C62.1,43.7,61.4,44.4,60.5,44.4z"/>
			<path class="st0" d="M30.2,39.5c-0.7,0-1.3,0.6-1.3,1.3c0,2.9-2.3,5.2-5.2,5.2c-2.9,0-5.2-2.3-5.2-5.2c0-0.7-0.6-1.3-1.3-1.3
				c-0.7,0-1.3,0.6-1.3,1.3c0,4.2,3.5,7.7,7.7,7.7c4.2,0,7.7-3.5,7.7-7.7C31.5,40,30.9,39.5,30.2,39.5z"/>
		</g>
	</g>
</g>
</svg>
