<svg width="63" height="46" xmlns="http://www.w3.org/2000/svg">
    <g fill-rule="nonzero" fill="none">
        <path d="M63 4.355v37.29A4.345 4.345 0 0 1 58.655 46H4.345A4.345 4.345 0 0 1 0 41.645V4.355A4.345 4.345 0 0 1 4.345 0h54.31A4.345 4.345 0 0 1 63 4.355z" fill="#9B51E0"/>
        <path d="M63 4.354v3.374c0 1.279-1.086 2.177-2.064 2.177-22.81 1.129-40.624 14.816-48.078 34.68A2.177 2.177 0 0 1 10.821 46H4.345A4.345 4.345 0 0 1 0 41.646V4.354A4.345 4.345 0 0 1 4.345 0h54.31A4.345 4.345 0 0 1 63 4.354z" fill="#AE6CEB"/>
        <path fill="#42434D" d="M0 10h63v9H0z"/>
        <path d="M62 10c-1.355.423-14.864-.225-28.92 8.971-.054.04 1.492.027-33.08.027V10h62z" fill="#4D4E59"/>
        <g fill="#FFF">
            <path d="M17.94 30.182H9.06c-.583 0-1.06-.491-1.06-1.091S8.477 28 9.06 28h8.88c.583 0 1.06.49 1.06 1.09 0 .6-.477 1.092-1.06 1.092zM17.94 37H9.06C8.477 37 8 36.51 8 35.91c0-.6.477-1.092 1.06-1.092h8.88c.583 0 1.06.491 1.06 1.091S18.523 37 17.94 37z"/>
        </g>
    </g>
</svg>
