<?xml version="1.0" encoding="utf-8"?>
<!-- Generator: Adobe Illustrator 26.0.1, SVG Export Plug-In . SVG Version: 6.00 Build 0)  -->
<svg version="1.1" id="레이어_1" xmlns="http://www.w3.org/2000/svg" xmlns:xlink="http://www.w3.org/1999/xlink" x="0px"
	 y="0px" viewBox="0 0 36 36" style="enable-background:new 0 0 36 36;" xml:space="preserve">
<style type="text/css">
	.st0{stroke:#000000;stroke-width:0.4;}
</style>
<g>
	<path class="st0" d="M9.5,17C7,17,5,15,5,12.5S7,8,9.5,8s4.5,2,4.5,4.5S12,17,9.5,17z M9.5,9.3c-1.8,0-3.2,1.4-3.2,3.2
		s1.4,3.2,3.2,3.2s3.2-1.4,3.2-3.2S11.3,9.3,9.5,9.3L9.5,9.3z M6.2,19h6.5c2.9,0,5.2,2.3,5.2,5.2v3.2c0,0.4-0.3,0.6-0.7,0.6l0,0H1.7
		C1.3,28,1,27.7,1,27.4l0,0v-3.2C1,21.3,3.4,19,6.2,19z M2.3,26.7h14.4v-2.6c0-2.1-1.8-3.9-3.9-3.9H6.2c-2.2,0-3.9,1.7-3.9,3.9
		C2.3,24.1,2.3,26.7,2.3,26.7z"/>
	<g>
		<path class="st0" d="M26.5,17C24,17,22,15,22,12.5S24,8,26.5,8s4.5,2,4.5,4.5S29,17,26.5,17z M26.5,9.3c-1.8,0-3.2,1.4-3.2,3.2
			s1.4,3.2,3.2,3.2s3.2-1.4,3.2-3.2S28.3,9.3,26.5,9.3z M23.2,19h6.5c2.9,0,5.2,2.3,5.2,5.2v3.2c0,0.4-0.3,0.6-0.7,0.6l0,0H18.7
			c-0.4,0-0.7-0.3-0.7-0.6l0,0v-3.2C18,21.3,20.4,19,23.2,19z M19.3,26.7h14.4v-2.6c0-2.1-1.8-3.9-3.9-3.9h-6.5
			c-2.2,0-3.9,1.7-3.9,3.9C19.3,24.2,19.3,26.7,19.3,26.7z"/>
	</g>
</g>
</svg>
