<svg width="52" height="52" viewBox="0 0 52 52" xmlns="http://www.w3.org/2000/svg">
    <g fill="none" fill-rule="evenodd">
        <rect fill="#9B51E0" width="52" height="52" rx="9.6"/>
        <g fill="#FFF" fill-rule="nonzero">
            <path d="M36.781 34.446h-1.714V25.86c0-4.702-3.845-8.528-8.572-8.528-4.726 0-8.571 3.826-8.571 8.528v8.585H16.21a.855.855 0 0 0-.858.852v3.468c0 .471.384.853.858.853H36.78a.855.855 0 0 0 .857-.853v-3.468a.855.855 0 0 0-.857-.852zM19.638 25.86c0-3.762 3.076-6.822 6.857-6.822s6.857 3.06 6.857 6.822v8.585H19.638V25.86zm16.286 12.053H17.067V36.15h18.857v1.763zM26.495 14.362c.41 0 .743-.333.743-.743v-2.971a.743.743 0 0 0-1.486 0v2.971c0 .41.333.743.743.743zM19.91 16.925c.205.392.66.524 1.014.299.355-.225.477-.724.272-1.114l-1.486-2.826c-.205-.39-.66-.524-1.015-.298-.355.225-.477.724-.272 1.114l1.486 2.825zM16.729 21.419c.225-.355.091-.81-.299-1.015l-2.825-1.485c-.39-.205-.89-.084-1.115.272-.225.355-.091.81.299 1.014l2.825 1.486c.389.204.888.085 1.115-.272zM33.552 17.224c.354.224.81.093 1.015-.299l1.486-2.825c.205-.39.083-.89-.272-1.114-.355-.226-.81-.092-1.015.298l-1.485 2.826c-.206.39-.084.889.271 1.114zM41.986 19.19c-.225-.355-.724-.476-1.114-.271l-2.826 1.485c-.39.205-.524.66-.298 1.015.225.356.725.476 1.114.272l2.825-1.486c.39-.205.524-.66.299-1.014z"/>
        </g>
    </g>
</svg>
