<svg width="16" height="19" xmlns="http://www.w3.org/2000/svg">
    <g fill="#FFF" fill-rule="nonzero">
        <path d="M8 0C5.995 0 4.364 1.684 4.364 3.753v6.378c0 2.07 1.63 3.754 3.636 3.754 2.005 0 3.636-1.694 3.636-3.775V3.753C11.636 1.683 10.006 0 8 0zm2.375 10.11c0 1.363-1.065 2.473-2.375 2.473s-2.375-1.1-2.375-2.452V3.753C5.625 2.401 6.69 1.302 8 1.302s2.375 1.1 2.375 2.451v6.357zM7.273 15.346h1.455v2.923H7.273z"/>
        <path d="M10.272 17.538h-5.27c-.353 0-.638.328-.638.731 0 .404.285.731.637.731h5.27c.353 0 .638-.327.638-.73 0-.404-.285-.732-.637-.732zM13.163 6.577a.658.658 0 0 0-.655.661V9.84c0 2.71-2.185 4.915-4.872 4.915-2.686 0-4.87-2.205-4.87-4.915v-2.6a.658.658 0 0 0-.656-.662.658.658 0 0 0-.655.661V9.84c0 3.44 2.773 6.238 6.181 6.238 3.41 0 6.182-2.798 6.182-6.238v-2.6a.658.658 0 0 0-.655-.662z"/>
        <path d="M15.812 1.65a.64.64 0 0 0-.907 0L.188 16.438a.647.647 0 0 0 .454 1.1.638.638 0 0 0 .453-.188L15.812 2.562a.647.647 0 0 0 0-.912z"/>
    </g>
</svg>
