<svg width="86" height="63" viewBox="0 0 86 63" xmlns="http://www.w3.org/2000/svg" xmlns:xlink="http://www.w3.org/1999/xlink">
    <defs>
        <path id="a" d="M0 0h38v27H0z"/>
    </defs>
    <g fill="none" fill-rule="evenodd">
        <g transform="translate(20 1)">
            <rect stroke="#FFF" stroke-width="1.5" fill="#9B51E0" width="45" height="61" rx="4"/>
            <g transform="translate(3 17)">
                <mask id="b" fill="#fff">
                    <use xlink:href="#a"/>
                </mask>
                <path d="M37.994 13.677c.01-.452-.008-.91-.06-1.375-.537-4.74-4.427-8.548-9.241-9.045a10.485 10.485 0 0 0-8.897 3.382 11.39 11.39 0 0 1 1.853 3.715 6.75 6.75 0 0 1 6.777-3.448c3.04.37 5.478 2.803 5.822 5.803.457 3.993-2.714 7.389-6.675 7.389a6.739 6.739 0 0 1-5.924-3.5c-.506-.932-.603-1.172-.776-2.634-.256-2.154-.705-4.668-1.873-6.328a10.485 10.485 0 0 0-9.693-4.379c-.173.018-.34.049-.51.075.749-.944 1.754-1.862 3.108-2.635.36-.206.157-.753-.255-.692C5.058.965 0 6.565 0 13.329l.004-.004C-.08 19.06 4.627 23.753 10.427 23.753c3.088 0 5.866-1.332 7.777-3.441a11.39 11.39 0 0 1-1.853-3.715 6.75 6.75 0 0 1-6.777 3.449c-3.04-.37-5.479-2.804-5.822-5.805-.457-3.992 2.714-7.387 6.675-7.387 2.56 0 4.79 1.418 5.924 3.5.507.931.722 2.389.803 3.515.162 2.259.679 3.787 1.846 5.446a10.47 10.47 0 0 0 8.573 4.437c.567 0 1.124-.045 1.667-.131-.753.96-1.769 1.896-3.146 2.683-.36.206-.156.752.256.691 6.591-.96 11.65-6.56 11.65-13.324l-.006.006z" fill="#FFF" mask="url(#b)"/>
            </g>
            <path d="M27.542 32.882c-.437 0-.792-.41-.792-.919v-2.926c0-.508.355-.92.792-.92.437 0 .791.412.791.92v2.926c0 .508-.354.92-.791.92M32.292 32.882c-.437 0-.792-.41-.792-.919v-2.926c0-.508.355-.92.792-.92.437 0 .791.412.791.92v2.926c0 .508-.354.92-.791.92M16.605 29.706a.656.656 0 0 0-.644.667c0 1.524-1.198 2.764-2.67 2.764-1.471 0-2.668-1.24-2.668-2.764a.657.657 0 0 0-.645-.667.657.657 0 0 0-.645.667c0 2.26 1.776 4.098 3.958 4.098 2.183 0 3.959-1.838 3.959-4.098a.657.657 0 0 0-.645-.667" fill="#FFF"/>
        </g>
        <path stroke="#000" stroke-linecap="square" d="m1.5 8.5 83 48"/>
    </g>
</svg>
