<svg width="42" height="42" viewBox="0 0 42 42" xmlns="http://www.w3.org/2000/svg">
    <g fill="none" fill-rule="evenodd">
        <rect width="42" height="42" rx="7.92" fill="#9B51E0"/>
        <path d="m25.707 11.506 1.106 2.561h2.59c1.174 0 2.237.476 3.006 1.245a4.237 4.237 0 0 1 1.245 3.005v7.927a4.237 4.237 0 0 1-1.245 3.005 4.237 4.237 0 0 1-3.005 1.245H13.062a4.237 4.237 0 0 1-3.005-1.245 4.237 4.237 0 0 1-1.245-3.005v-7.927c0-1.174.476-2.236 1.245-3.005a4.237 4.237 0 0 1 3.005-1.245h3.104l1.167-2.56h8.374z" stroke="#FFF" stroke-width="1.5"/>
        <g fill="#FFF" fill-rule="nonzero" stroke="#FFF" stroke-width=".2">
            <path d="M16.453 20.716a5.121 5.121 0 0 1 9.122-2.323l.328.427v-1.516h.732v2.927h-2.927v-.732h1.305l-.2-.288a4.022 4.022 0 0 0-7.276 1.672l-1.084-.167zM21.512 26.634a5.082 5.082 0 0 1-4.062-2.003l-.328-.428v1.516h-.732v-2.927h2.927v.732h-1.306l.202.287a4.023 4.023 0 0 0 7.275-1.671l1.084.167a5.12 5.12 0 0 1-5.06 4.327z"/>
        </g>
    </g>
</svg>
