<svg width="52" height="52" viewBox="0 0 52 52" fill="none" xmlns="http://www.w3.org/2000/svg">
<rect width="52" height="52" rx="10" fill="#9B51E0"/>
<path d="M28.5099 35.5583C28.5099 36.1348 28.174 36.6586 27.6484 36.9031C27.4451 36.9984 27.2274 37.0445 27.011 37.0445C26.6684 37.0445 26.3289 36.9277 26.0547 36.7022L17.862 29.9692H13.4986C12.6711 29.9699 12 29.304 12 28.4833V22.5618C12 21.7408 12.6711 21.0752 13.4986 21.0752H17.8624L26.0551 14.3422C26.5027 13.9742 27.1234 13.8958 27.6487 14.142C28.174 14.3865 28.5103 14.9107 28.5103 15.4869L28.5099 35.5583V35.5583Z" stroke="white" stroke-width="2"/>
<path d="M32.8027 21.5747C32.8027 21.5747 36.542 24.8564 32.8027 28.8564" stroke="white" stroke-width="2" stroke-linecap="round" stroke-linejoin="round"/>
<path d="M35.4268 16.2153C35.4268 16.2153 44.67 24.3276 35.4268 34.2153" stroke="white" stroke-width="2" stroke-linecap="round" stroke-linejoin="round"/>
</svg>
