<svg width="13" height="7" viewBox="0 0 13 7" xmlns="http://www.w3.org/2000/svg">
    <g fill="#FFF" fill-rule="nonzero">
        <path d="M3.545 0c1.959 0 3.546 1.567 3.546 3.5S5.504 7 3.545 7C1.587 7 0 5.433 0 3.5S1.587 0 3.545 0zm0 1.167C2.24 1.167 1.182 2.21 1.182 3.5c0 1.289 1.058 2.333 2.363 2.333C4.851 5.833 5.91 4.79 5.91 3.5c0-1.289-1.058-2.333-2.364-2.333z"/>
        <path d="M9.455 0C11.413 0 13 1.567 13 3.5S11.413 7 9.455 7C7.496 7 5.909 5.433 5.909 3.5S7.496 0 9.455 0zm0 1.167C8.149 1.167 7.09 2.21 7.09 3.5c0 1.289 1.058 2.333 2.364 2.333 1.305 0 2.363-1.044 2.363-2.333 0-1.289-1.058-2.333-2.363-2.333z"/>
    </g>
</svg>
