<?xml version="1.0" encoding="utf-8"?>
<!-- Generator: Adobe Illustrator 26.0.1, SVG Export Plug-In . SVG Version: 6.00 Build 0)  -->
<svg version="1.1" id="레이어_1" xmlns="http://www.w3.org/2000/svg" xmlns:xlink="http://www.w3.org/1999/xlink" x="0px"
	 y="0px" viewBox="0 0 52 52" style="enable-background:new 0 0 52 52;" xml:space="preserve">
<style type="text/css">
	.st0{fill-rule:evenodd;clip-rule:evenodd;fill:#9B51E0;}
	.st1{fill:#FFFFFF;}
</style>
<path class="st0" d="M10,0h32c5.5,0,10,4.5,10,10v32c0,5.5-4.5,10-10,10H10C4.5,52,0,47.5,0,42V10C0,4.5,4.5,0,10,0z"/>
<g>
	<path class="st1" d="M26,13c-2.8,0-5,2.3-5,5.1v8.7c0,2.8,2.2,5.1,5,5.1s5-2.3,5-5.2v-8.7C31,15.3,28.8,13,26,13z M29.3,26.8
		c0,1.9-1.5,3.4-3.3,3.4c-1.8,0-3.3-1.5-3.3-3.4v-8.7c0-1.9,1.5-3.4,3.3-3.4c1.8,0,3.3,1.5,3.3,3.4C29.3,18.1,29.3,26.8,29.3,26.8z
		 M25,34h2v4h-2V34z"/>
	<path class="st1" d="M29.6,37h-7.2c-0.5,0-0.9,0.4-0.9,1s0.4,1,0.9,1h7.2c0.5,0,0.9-0.4,0.9-1S30.1,37,29.6,37z M33.6,22
		c-0.5,0-0.9,0.4-0.9,0.9c0,0,0,0,0,0v3.6c0,3.7-3,6.7-6.7,6.7s-6.7-3-6.7-6.7v-3.6c0-0.5-0.4-0.9-0.9-0.9c-0.5,0-0.9,0.4-0.9,0.9
		c0,0,0,0,0,0v3.6c0,4.7,3.8,8.5,8.5,8.5s8.5-3.8,8.5-8.5v-3.6C34.5,22.4,34.1,22,33.6,22z"/>
</g>
</svg>
