<?xml version="1.0" encoding="utf-8"?>
<!-- Generator: Adobe Illustrator 26.0.0, SVG Export Plug-In . SVG Version: 6.00 Build 0)  -->
<svg version="1.1" id="레이어_1" xmlns="http://www.w3.org/2000/svg" xmlns:xlink="http://www.w3.org/1999/xlink" x="0px"
	 y="0px" viewBox="0 0 25 15" style="enable-background:new 0 0 25 15;" xml:space="preserve">
<style type="text/css">
	.st0{fill:#9B51E0;enable-background:new    ;}
</style>
<path class="st0" d="M12.5,15c-4.8,0-9.1-2.6-12.3-6.9c-0.3-0.3-0.3-0.8,0-1.2C3.4,2.6,7.7,0,12.5,0s9.1,2.6,12.3,6.9
	c0.3,0.3,0.3,0.8,0,1.2C21.6,12.4,17.3,15,12.5,15z M12.8,2.2C9.7,2,7.1,4.6,7.3,7.8c0.2,2.6,2.3,4.8,4.9,4.9
	c3.2,0.2,5.8-2.4,5.6-5.6C17.6,4.5,15.5,2.4,12.8,2.2z M12.7,4.7c-1.6-0.1-2.9,1.1-3,2.7c0,0.1,0,0.2,0,0.4c0.1,1.4,1.2,2.6,2.6,2.7
	c1.6,0.1,2.9-1.1,3-2.7c0-0.1,0-0.2,0-0.4C15.2,5.9,14.1,4.7,12.7,4.7z"/>
</svg>
