<?xml version="1.0" encoding="utf-8"?>
<!-- Generator: Adobe Illustrator 26.0.1, SVG Export Plug-In . SVG Version: 6.00 Build 0)  -->
<svg version="1.1" id="레이어_1" xmlns="http://www.w3.org/2000/svg" xmlns:xlink="http://www.w3.org/1999/xlink" x="0px"
	 y="0px" viewBox="0 0 36 36" style="enable-background:new 0 0 36 36;" xml:space="preserve">
<g>
	<path d="M14,17.5H2c-0.5,0-1-0.4-1-1c0-0.6,0.4-1,1-1h12.1c0.5,0,1,0.4,1,1C15,17.1,14.6,17.5,14,17.5z"/>
	<path d="M9,22.5c-0.6,0-1-0.4-1-1c0-0.3,0.1-0.5,0.3-0.7l4.3-4.3l-4.3-4.3c-0.4-0.4-0.4-1,0-1.4s1-0.4,1.4,0l5,5
		c0.4,0.4,0.4,1,0,1.4l-5,5C9.5,22.4,9.3,22.5,9,22.5z M21.6,33.5c-1.4,0-2.6-1.2-2.6-2.6V7.7c0-1.1,0.7-2.1,1.8-2.5l7.8-2.6
		C30.3,2.1,32,3.4,32,5.1v23.3c0,1.1-0.7,2.1-1.8,2.5l-7.8,2.6C22.2,33.5,21.9,33.5,21.6,33.5z M29.4,4.4c-0.1,0-0.2,0-0.2,0L21.4,7
		C21.1,7.1,21,7.3,21,7.6v23.3c0,0.4,0.5,0.7,0.9,0.6l7.8-2.6c0.3-0.1,0.4-0.3,0.4-0.6V5.1C30,4.7,29.8,4.4,29.4,4.4L29.4,4.4z"/>
	<path d="M12,8.5c-0.5,0-1-0.4-1-0.9V5.8c0-1.8,1.6-3.3,3.5-3.3H29c0.5,0,1,0.4,1,0.9s-0.4,0.9-1,0.9H14.5c-0.9,0-1.6,0.7-1.6,1.5
		v1.8C12.9,8.1,12.5,8.5,12,8.5z M20,29.5h-5.3c-2,0-3.7-1.5-3.7-3.3v-1.8c0-0.5,0.4-0.9,1-0.9s1,0.4,1,0.9v1.8
		c0,0.8,0.7,1.5,1.7,1.5H20c0.6,0,1,0.4,1,0.9S20.6,29.5,20,29.5z"/>
</g>
</svg>
