<svg width="31" height="41" xmlns="http://www.w3.org/2000/svg" xmlns:xlink="http://www.w3.org/1999/xlink">
    <defs>
        <path id="a" d="M0 0h24v17H0z"/>
    </defs>
    <g transform="translate(1 1)" fill="none" fill-rule="evenodd">
        <rect stroke="#FFF" stroke-width="1.5" fill="#9B51E0" width="29" height="39" rx="4"/>
        <g transform="translate(2 11)">
            <mask id="b" fill="#fff">
                <use xlink:href="#a"/>
            </mask>
            <path d="M23.996 8.612a6.547 6.547 0 0 0-.038-.867c-.339-2.984-2.796-5.381-5.836-5.694a6.633 6.633 0 0 0-5.62 2.13 7.163 7.163 0 0 1 1.171 2.338 4.266 4.266 0 0 1 4.28-2.171c1.92.233 3.46 1.765 3.677 3.654.29 2.514-1.714 4.652-4.215 4.652a4.258 4.258 0 0 1-3.742-2.204c-.32-.586-.38-.737-.49-1.658-.162-1.356-.445-2.94-1.183-3.984A6.633 6.633 0 0 0 5.878 2.05c-.109.01-.215.03-.322.047A6.724 6.724 0 0 1 7.52.438c.228-.129.1-.473-.161-.435C3.195.608 0 4.133 0 8.393l.002-.003c-.052 3.61 2.92 6.565 6.584 6.565 1.95 0 3.704-.838 4.911-2.166a7.163 7.163 0 0 1-1.17-2.339 4.266 4.266 0 0 1-4.28 2.171c-1.92-.233-3.46-1.765-3.678-3.654-.288-2.514 1.715-4.652 4.217-4.652 1.616 0 3.025.893 3.74 2.204.321.586.457 1.504.508 2.213.102 1.423.429 2.385 1.166 3.43a6.622 6.622 0 0 0 5.415 2.794c.358 0 .71-.03 1.052-.084a6.734 6.734 0 0 1-1.986 1.69c-.228.13-.1.473.161.435 4.163-.605 7.358-4.13 7.358-8.39l-.004.005z" fill="#FFF" mask="url(#b)"/>
        </g>
        <path d="M17.5 21c-.276 0-.5-.259-.5-.579V18.58c0-.32.224-.579.5-.579s.5.26.5.579v1.842c0 .32-.224.579-.5.579M20.5 21c-.276 0-.5-.259-.5-.579V18.58c0-.32.224-.579.5-.579s.5.26.5.579v1.842c0 .32-.224.579-.5.579M10.593 19a.414.414 0 0 0-.407.42c0 .96-.757 1.74-1.686 1.74-.93 0-1.686-.78-1.686-1.74a.414.414 0 0 0-.407-.42.414.414 0 0 0-.407.42C6 20.843 7.121 22 8.5 22c1.378 0 2.5-1.157 2.5-2.58a.414.414 0 0 0-.407-.42" fill="#FFF"/>
    </g>
</svg>
