<svg width="52" height="52" xmlns="http://www.w3.org/2000/svg">
    <g fill="none" fill-rule="evenodd">
        <rect fill="#9B51E0" width="52" height="52" rx="10"/>
        <circle stroke="#FFF" stroke-width="2" cx="26" cy="19.118" r="5.118"/>
        <path d="M30.206 27c1.519 0 2.894.616 3.889 1.61a5.483 5.483 0 0 1 1.61 3.89V36c0 .552-.223 1.052-.585 1.414a1.994 1.994 0 0 1-1.414.586H18.294a1.994 1.994 0 0 1-1.414-.586A1.994 1.994 0 0 1 16.294 36v-3.5c0-1.519.616-2.894 1.611-3.89a5.483 5.483 0 0 1 3.89-1.61z" stroke="#FFF" stroke-width="2"/>
    </g>
</svg>
