<svg width="20" height="20" xmlns="http://www.w3.org/2000/svg">
    <path d="M10.781 15.703H9.22v-1.562h1.562v1.562zm0-4.565a3.256 3.256 0 0 0 2.498-3.285c-.065-1.688-1.45-3.06-3.152-3.124a3.277 3.277 0 0 0-2.419.917 3.199 3.199 0 0 0-.99 2.323h1.563c0-.455.182-.88.511-1.198a1.73 1.73 0 0 1 1.276-.48c.891.033 1.616.745 1.65 1.622a1.695 1.695 0 0 1-1.341 1.715 1.46 1.46 0 0 0-1.158 1.434v1.516h1.562v-1.44zm6.29 5.933A9.934 9.934 0 0 0 20 10a9.934 9.934 0 0 0-2.929-7.071A9.934 9.934 0 0 0 10 0a9.934 9.934 0 0 0-7.071 2.929A9.934 9.934 0 0 0 0 10a9.934 9.934 0 0 0 2.929 7.071A9.934 9.934 0 0 0 10 20a9.934 9.934 0 0 0 7.071-2.929zM18.437 10c0 4.652-3.785 8.438-8.437 8.438-4.652 0-8.438-3.786-8.438-8.438 0-4.652 3.786-8.438 8.438-8.438 4.652 0 8.438 3.786 8.438 8.438z" fill="#000" fill-rule="nonzero" opacity=".5"/>
</svg>
