<svg width="190" height="46" xmlns="http://www.w3.org/2000/svg" xmlns:xlink="http://www.w3.org/1999/xlink">
    <defs>
        <path id="a" d="M0 0h29v35H0z"/>
        <path id="c" d="M0 0h35v41H0z"/>
    </defs>
    <g fill="none" fill-rule="evenodd">
        <g transform="translate(9 11)">
            <mask id="b" fill="#fff">
                <use xlink:href="#a"/>
            </mask>
            <path d="M7.17 0h12.76c6.85 0 9.429 3.509 9.03 8.672-.656 8.512-5.742 13.22-12.488 13.22h-3.406c-.925 0-1.547.618-1.799 2.299l-1.461 9.758c-.095.634-.424 1.006-.92 1.051h-8c-.753 0-1.02-.583-.824-1.845L4.948 1.852C5.144.597 5.822 0 7.17 0" fill="#00A2D3" mask="url(#b)"/>
        </g>
        <path d="M111.393 19.743h-4.355c-.903 0-1.27.663-.983 1.506l5.428 15.952-5.349 7.587c-.446.633-.102 1.212.528 1.212h4.915c.733 0 1.091-.188 1.46-.72l16.694-24.03c.515-.741.272-1.516-.57-1.517l-4.647-.005c-.798 0-1.118.316-1.576.982l-6.963 10.138-3.098-10.155c-.19-.626-.646-.95-1.484-.95zM89.7 34.6c-2.862 0-4.858-2.291-4.442-5.1.417-2.81 3.091-5.1 5.954-5.1 2.863 0 4.858 2.29 4.441 5.1-.416 2.809-3.09 5.1-5.953 5.1zm3.608 2.57c.443-.403.895-.614.83-.115l-.158 1.196c-.082.622.165.956.745.956h4.311c.725 0 1.08-.295 1.259-1.422l2.656-16.734c.134-.84-.069-1.253-.705-1.253h-4.74c-.428 0-.635.24-.747.896l-.176 1.03c-.092.538-.336.63-.564.09-.806-1.912-2.857-2.769-5.733-2.71-6.651.138-11.134 5.204-11.614 11.698-.37 5.024 3.217 8.968 7.944 8.968 3.43 0 4.964-1.026 6.692-2.6zM64.312 23.812h3.953c2.47-.093 4.115-1.81 4.28-4.91.102-1.914-1.186-3.283-3.237-3.273l-3.721.017-1.275 8.166zM72.217 10c4.397 0 8.453 2.392 7.897 8.358-.657 7.072-4.456 11.01-10.43 11.027h-5.21c-.752 0-1.113.613-1.31 1.874l-1.006 6.437c-.151.972-.648 1.451-1.383 1.451h-4.853c-.774 0-1.045-.496-.872-1.606l4.012-25.8c.197-1.27.68-1.741 1.538-1.741h11.617z" fill="#1C3D92"/>
        <path d="M184.77 39.463h-4.992c-.397 0-.672-.313-.612-.696l4.39-28.012c.06-.383.434-.696.83-.696h4.994c.396 0 .672.313.612.696L185.6 38.767c-.06.383-.434.696-.83.696zm-19.954-4.673c-2.872 0-4.874-2.309-4.456-5.14.418-2.83 3.101-5.14 5.974-5.14 2.872 0 4.874 2.31 4.456 5.14-.418 2.831-3.101 5.14-5.974 5.14zm3.62 2.59c.445-.406.899-.619.833-.116l-.158 1.205c-.083.628.166.964.747.964h4.326c.728 0 1.084-.298 1.263-1.433l2.666-16.864c.133-.847-.07-1.263-.709-1.263h-4.756c-.429 0-.636.243-.749.903l-.176 1.038c-.092.542-.338.635-.566.09-.808-1.926-2.867-2.79-5.753-2.73-6.673.139-11.172 5.244-11.653 11.788-.372 5.063 3.228 9.038 7.97 9.038 3.443 0 4.982-1.034 6.715-2.62zm-29.093-13.462h3.967c2.48-.093 4.128-1.824 4.294-4.947.102-1.93-1.19-3.309-3.248-3.3l-3.734.018-1.279 8.23zM147.275 10c4.412 0 8.482 2.41 7.925 8.423-.66 7.127-4.472 11.096-10.466 11.113h-5.229c-.753 0-1.116.617-1.313 1.888l-1.01 6.487c-.152.98-.65 1.463-1.388 1.463h-4.87c-.776 0-1.047-.5-.874-1.619l4.026-26.001c.197-1.279.683-1.754 1.543-1.754h11.656z" fill="#00A2D3"/>
        <g>
            <mask id="d" fill="#fff">
                <use xlink:href="#c"/>
            </mask>
            <path d="M8.431 0h12.953c3.648 0 7.975.12 10.87 2.693 1.933 1.719 2.947 4.457 2.713 7.397-.794 9.97-6.71 15.554-14.644 15.554h-6.388c-1.087 0-1.808.726-2.115 2.694l-1.782 11.43c-.116.742-.435 1.18-1.017 1.232H1.04c-.885 0-1.2-.683-.968-2.161L5.82 2.169C6.049.7 6.847 0 8.431 0" fill="#1C3D92" mask="url(#d)"/>
        </g>
        <path d="m11 27 2.294-14.164c.2-1.244.898-1.836 2.284-1.836h13.12c2.172 0 3.927.33 5.302.94-1.318 8.709-7.09 13.548-14.65 13.548h-6.478c-.852 0-1.49.425-1.872 1.512" fill="#1C2E7E"/>
    </g>
</svg>
