<svg width="52" height="52" xmlns="http://www.w3.org/2000/svg">
    <g fill="none" fill-rule="evenodd">
        <rect fill="#9B51E0" width="52" height="52" rx="10"/>
        <path d="M27 14c-6.632 0-12 5.367-12 12 0 2.105.549 4.16 1.591 5.974l-1.546 4.801a.937.937 0 0 0 1.18 1.18l4.801-1.546A11.972 11.972 0 0 0 27 38c6.632 0 12-5.367 12-12 0-6.632-5.367-12-12-12zm0 22.125c-1.901 0-3.754-.53-5.36-1.534a.938.938 0 0 0-.784-.097L17.39 35.61l1.116-3.466a.938.938 0 0 0-.097-.785A10.097 10.097 0 0 1 16.875 26c0-5.583 4.542-10.125 10.125-10.125S37.125 20.417 37.125 26 32.583 36.125 27 36.125zM28.172 26a1.172 1.172 0 1 1-2.344 0 1.172 1.172 0 0 1 2.344 0zm4.687 0a1.172 1.172 0 1 1-2.343 0 1.172 1.172 0 0 1 2.343 0zm-9.375 0a1.172 1.172 0 1 1-2.343 0 1.172 1.172 0 0 1 2.343 0z" fill="#FFF" fill-rule="nonzero"/>
    </g>
</svg>
