<svg width="25" height="15" xmlns="http://www.w3.org/2000/svg">
    <path d="M12.5 15C7.723 15 3.392 12.37.196 8.097c-.261-.35-.261-.839 0-1.189C3.392 2.63 7.723 0 12.5 0s9.108 2.63 12.304 6.903c.261.35.261.839 0 1.189C21.608 12.37 17.277 15 12.5 15zm.343-12.781c-3.171-.201-5.79 2.43-5.59 5.626.164 2.635 2.286 4.772 4.904 4.936 3.171.201 5.79-2.43 5.59-5.626-.169-2.63-2.291-4.767-4.904-4.936zm-.159 2.44a2.836 2.836 0 0 0-3.007 3.026 2.853 2.853 0 0 0 2.644 2.662 2.836 2.836 0 0 0 3.007-3.027c-.092-1.426-1.238-2.574-2.644-2.661z" fill="#000" fill-rule="nonzero" opacity=".2"/>
</svg>
