<?xml version="1.0" encoding="utf-8"?>
<!-- Generator: Adobe Illustrator 26.0.1, SVG Export Plug-In . SVG Version: 6.00 Build 0)  -->
<svg version="1.1" id="레이어_1" xmlns="http://www.w3.org/2000/svg" xmlns:xlink="http://www.w3.org/1999/xlink" x="0px"
	 y="0px" viewBox="0 0 36 36" style="enable-background:new 0 0 36 36;" xml:space="preserve">
<style type="text/css">
	.st0{stroke:#000000;stroke-width:0.6;}
</style>
<g>
	<path class="st0" d="M28.5,14h-15c-0.3,0-0.5,0.2-0.5,0.5s0.2,0.5,0.5,0.5h15.1c0.3,0,0.5-0.2,0.5-0.5C29,14.2,28.8,14,28.5,14z
		 M28.5,17h-15c-0.3,0-0.5,0.2-0.5,0.5s0.2,0.5,0.5,0.5h15.1c0.3,0,0.5-0.2,0.5-0.5C29,17.2,28.8,17,28.5,17z M28.5,21h-15
		c-0.3,0-0.5,0.2-0.5,0.5s0.2,0.5,0.5,0.5h15.1c0.3,0,0.5-0.2,0.5-0.5C29,21.2,28.8,21,28.5,21z"/>
	<path class="st0" d="M30.3,10H12.7c-1.5,0-2.7,1.2-2.7,2.7v11.1c0,1.5,1.2,2.7,2.7,2.7H25c0.1,0,0.3,0.1,0.3,0.2l4,5.1
		c0.2,0.3,0.6,0.4,0.9,0.3s0.5-0.4,0.5-0.8v-4.8c1.3-0.2,2.2-1.4,2.2-2.6V12.7C33,11.2,31.8,10,30.3,10z M32.1,23.8
		c0,1-0.8,1.8-1.7,1.8c-0.3,0-0.5,0.2-0.5,0.5v4.8l-3.8-4.8c-0.3-0.3-0.6-0.5-1.1-0.5H12.7c-1,0-1.8-0.8-1.8-1.8V12.7
		c0-1,0.8-1.8,1.8-1.8h17.6c1,0,1.8,0.8,1.8,1.8V23.8L32.1,23.8z"/>
	<path class="st0" d="M7.8,17.4c-0.3,0-0.6,0.2-0.8,0.5l-3.2,4v-4c0-0.3-0.2-0.5-0.5-0.5c-0.8,0-1.4-0.7-1.4-1.5V6.4
		c0-0.8,0.7-1.5,1.5-1.5h15.2c0.8,0,1.5,0.7,1.5,1.5v1.8c0,0.3,0.2,0.5,0.5,0.5s0.5-0.2,0.5-0.5V6.4C21,5.1,19.9,4,18.6,4H3.4
		C2.1,4,1,5.1,1,6.4v9.5C1,17,1.8,18,2.9,18.2v4c0,0.3,0.2,0.6,0.5,0.7s0.6,0,0.8-0.2l3.4-4.3c0-0.1,0.1-0.1,0.2-0.1
		c0.3,0,0.4-0.2,0.4-0.5C8.3,17.5,8.1,17.3,7.8,17.4L7.8,17.4z"/>
</g>
</svg>
