<svg width="52" height="52" xmlns="http://www.w3.org/2000/svg">
    <g fill="none" fill-rule="evenodd">
        <rect fill="#9B51E0" width="52" height="52" rx="10"/>
        <path d="m38.567 28.85-2.36-1.87c.03-.288.056-.625.056-.981a9.24 9.24 0 0 0-.056-.982l2.362-1.87c.439-.35.559-.973.28-1.492l-2.454-4.3a1.131 1.131 0 0 0-1.42-.517l-2.784 1.132a9.518 9.518 0 0 0-1.672-.982l-.424-2.991A1.14 1.14 0 0 0 28.961 13h-4.92c-.577 0-1.064.429-1.132.988l-.425 3.002c-.56.256-1.111.58-1.669.983l-2.791-1.136c-.524-.205-1.15.025-1.41.508l-2.456 4.305c-.29.497-.17 1.141.278 1.5l2.36 1.87a9.548 9.548 0 0 0-.056.98c0 .298.018.615.056.982l-2.362 1.87c-.439.351-.558.974-.279 1.492l2.454 4.3c.262.484.832.736 1.42.517l2.784-1.132a9.602 9.602 0 0 0 1.671.982l.424 2.99c.07.57.556.999 1.134.999h4.92c.577 0 1.065-.429 1.133-.988l.425-3c.56-.258 1.11-.582 1.669-.984l2.791 1.135a1.127 1.127 0 0 0 1.409-.507l2.465-4.323a1.18 1.18 0 0 0-.287-1.484zm-12.066 1.483c-2.36 0-4.279-1.943-4.279-4.333s1.92-4.333 4.279-4.333c2.36 0 4.279 1.943 4.279 4.333s-1.92 4.333-4.28 4.333z" fill-rule="nonzero" stroke="#FFF" stroke-width="2"/>
    </g>
</svg>
