<svg width="52" height="52" xmlns="http://www.w3.org/2000/svg">
    <g fill="none" fill-rule="evenodd">
        <rect fill="#9B51E0" width="52" height="52" rx="10"/>
        <g transform="translate(25.182 19.293)" fill="#FFF" fill-rule="nonzero">
            <path d="M1.318 0a.977.977 0 0 0-.976.977v6.288a.977.977 0 1 0 1.953 0V.977A.977.977 0 0 0 1.318 0z"/>
            <circle cx="1.318" cy="10.756" r="1.318"/>
        </g>
        <path d="M35.625 36h-19.25a2.943 2.943 0 0 1-2.946-2.933c0-.524.14-1.04.408-1.49l9.625-16.135A2.963 2.963 0 0 1 26 14c1.037 0 2.01.553 2.538 1.442l9.625 16.134c.267.452.408.967.408 1.49A2.943 2.943 0 0 1 35.625 36z" stroke="#FFF" stroke-width="2"/>
    </g>
</svg>
